HIERARCHY
ROOT Hips
{
  OFFSET 49.2464 99.9748 -13.693
  CHANNELS 6 Xposition Yposition Zposition Zrotation Xrotation Yrotation
  JOINT spine
  {
    OFFSET 0 8.81705 0.507024
    CHANNELS 3 Zrotation Xrotation Yrotation
    JOINT spine1
    {
      OFFSET 0 10.7766 0
      CHANNELS 3 Zrotation Xrotation Yrotation
      JOINT spine2
      {
        OFFSET 0 10.3259 0
        CHANNELS 3 Zrotation Xrotation Yrotation
        JOINT Neck
        {
          OFFSET 0 26.511 1.26395
          CHANNELS 3 Zrotation Xrotation Yrotation
          JOINT Head
          {
            OFFSET 0 8.00966 0
            CHANNELS 3 Zrotation Xrotation Yrotation
            End Site
            {
              OFFSET 0 19.3879 -6.39386
            }
          }
        }
        JOINT RightShoulder
        {
          OFFSET -4.34795 11.1512 -0.605422
          CHANNELS 3 Zrotation Xrotation Yrotation
          JOINT RightArm
          {
            OFFSET 0 14.6258 0
            CHANNELS 3 Zrotation Xrotation Yrotation
            JOINT RightArmRoll
            {
              OFFSET 0 7.3834 0
              CHANNELS 3 Zrotation Xrotation Yrotation
              JOINT RightForeArm
              {
                OFFSET 0 21.5052 0
                CHANNELS 3 Zrotation Xrotation Yrotation
                JOINT RightForeArmRoll
                {
                  OFFSET 0 8.28532 0
                  CHANNELS 3 Zrotation Xrotation Yrotation
                  JOINT RightHand
                  {
                    OFFSET 0 16.6268 0
                    CHANNELS 3 Zrotation Xrotation Yrotation
                    End Site
                    {
                      OFFSET 0 0 0
                    }
                  }
                }
              }
            }
          }
        }
        JOINT LeftShoulder
        {
          OFFSET 4.34795 11.1512 -0.605422
          CHANNELS 3 Zrotation Xrotation Yrotation
          JOINT LeftArm
          {
            OFFSET 0 14.6258 0
            CHANNELS 3 Zrotation Xrotation Yrotation
            JOINT LeftArmRoll
            {
              OFFSET 0 7.38339 0
              CHANNELS 3 Zrotation Xrotation Yrotation
              JOINT LeftForeArm
              {
                OFFSET 0 21.5052 0
                CHANNELS 3 Zrotation Xrotation Yrotation
                JOINT LeftForeArmRoll
                {
                  OFFSET 0 8.28532 0
                  CHANNELS 3 Zrotation Xrotation Yrotation
                  JOINT LeftHand
                  {
                    OFFSET 0 16.6268 0
                    CHANNELS 3 Zrotation Xrotation Yrotation
                    End Site
                    {
                      OFFSET 0 0 0
                    }
                  }
                }
              }
            }
          }
        }
      }
    }
  }
  JOINT RightUpLeg
  {
    OFFSET -7.8151 -1.43309 -1.20217
    CHANNELS 3 Zrotation Xrotation Yrotation
    JOINT RightUpLegRoll
    {
      OFFSET 0 19.4959 0
      CHANNELS 3 Zrotation Xrotation Yrotation
      JOINT RightLeg
      {
        OFFSET 0 -24.1427 0
        CHANNELS 3 Zrotation Xrotation Yrotation
        JOINT RightLegRoll
        {
          OFFSET 0 24.2217 0
          CHANNELS 3 Zrotation Xrotation Yrotation
          JOINT RightFoot
          {
            OFFSET 0 20.1605 0
            CHANNELS 3 Zrotation Xrotation Yrotation
            JOINT RightToeBase
            {
              OFFSET 0 16.8532 0
              CHANNELS 3 Zrotation Xrotation Yrotation
              End Site
              {
                OFFSET 0.00714343 8.16187 -0.94078
              }
            }
          }
        }
      }
    }
  }
  JOINT LeftUpLeg
  {
    OFFSET 7.8151 -1.43309 -1.20217
    CHANNELS 3 Zrotation Xrotation Yrotation
    JOINT LeftUpLegRoll
    {
      OFFSET 0 19.496 0
      CHANNELS 3 Zrotation Xrotation Yrotation
      JOINT LeftLeg
      {
        OFFSET 0 24.1426 0
        CHANNELS 3 Zrotation Xrotation Yrotation
        JOINT LeftLegRoll
        {
          OFFSET 0 24.4456 0
          CHANNELS 3 Zrotation Xrotation Yrotation
          JOINT LeftFoot
          {
            OFFSET 0 19.9366 0
            CHANNELS 3 Zrotation Xrotation Yrotation
            JOINT LeftToeBase
            {
              OFFSET 0 16.8532 0
              CHANNELS 3 Zrotation Xrotation Yrotation
              End Site
              {
                OFFSET -0.0320138 8.16187 -0.940781
              }
            }
          }
        }
      }
    }
  }
}
MOTION
Frames: 11
Frame Time: 0.00208333
47.8501 99.7608 -0.196593 1.88535 -1.89976 3.43621 -0.119498 -1.73884 0.112784 -0.232191 0.524878 0.23745 -0.235499 2.16994 0.241336 -11.4485 20.9098 3.10455 5.04829 -3.82935 0.291216 57.4194 -2.70577 -1.5786 117.591 12.6492 15.3762 2.01821e-007 -4.92195e-007 -7.94283e-007 9.61261 3.24376 -0.691368 -6.79498e-006 8.86011e-007 -3.00783 8.02896 -4.95146 0.697663 -63.4369 -3.9334 2.81115 -109.748 13.7289 -4.03671 3.87447e-006 -1.35161e-006 1.86236e-006 -12.1564 8.04055 1.36997 7.24366e-006 -3.95987e-006 3.0075 -8.02888 -4.95141 -0.697687 175.19 3.09271 2.16723 180 7.01557e-015 178.968 176.956 15.5137 179.771 1.37498e-006 -4.95266e-006 0.250501 -23.3594 73.3576 25.2876 8.12756 25.2332 -3.48393 -178.872 1.49055 3.63166 4.54188e-006 -4.6773e-006 -1.07632 -1.56447 -11.5364 0.351679 3.63445e-006 -4.01359e-006 -0.171304 20.2524 71.4266 -22.7602 -8.12472 25.2333 3.48272 
47.8445 99.7559 -0.191168 1.88828 -1.89963 3.43164 -0.119522 -1.73567 0.112296 -0.232304 0.531212 0.23656 -0.235576 2.17627 0.240453 -11.4632 20.9113 3.1116 5.05806 -3.82215 0.294628 57.4047 -2.69831 -1.57253 117.608 12.6793 15.3463 2.01821e-007 -4.92195e-007 -7.94283e-007 9.61886 3.2534 -0.692571 -6.79498e-006 8.86011e-007 -3.00783 8.02896 -4.95146 0.697663 -63.445 -3.93646 2.81347 -109.742 13.763 -4.03877 3.87447e-006 -1.35161e-006 1.86236e-006 -12.1511 7.99284 1.36399 7.24366e-006 -3.95987e-006 3.0075 -8.02888 -4.95141 -0.697687 175.187 3.10272 2.16393 180 7.01557e-015 178.968 176.964 15.5222 179.769 1.37498e-006 -4.95266e-006 0.250501 -23.3485 73.3566 25.2847 8.12756 25.2332 -3.48393 -178.875 1.49348 3.62962 4.54188e-006 -4.6773e-006 -1.07618 -1.5684 -11.5382 0.350921 3.63445e-006 -4.01359e-006 -0.171336 20.256 71.4256 -22.7585 -8.12472 25.2333 3.48272 
47.8537 99.7645 -0.183389 1.89123 -1.89958 3.42721 -0.119562 -1.73253 0.111774 -0.232427 0.537503 0.235639 -0.235661 2.18256 0.239542 -11.4779 20.9131 3.1186 5.06788 -3.81497 0.297931 57.3902 -2.69079 -1.56642 117.626 12.7094 15.3166 2.01821e-007 -4.92195e-007 -7.94283e-007 9.62494 3.26296 -0.693744 -6.79498e-006 8.86011e-007 -3.00783 8.02896 -4.95146 0.697663 -63.4533 -3.93948 2.81578 -109.736 13.7974 -4.04084 3.87447e-006 -1.35161e-006 1.86236e-006 -12.1458 7.94453 1.35793 7.24366e-006 -3.95987e-006 3.0075 -8.02888 -4.95141 -0.697687 175.183 3.11251 2.16036 180 7.01557e-015 178.968 176.973 15.5305 179.766 1.37498e-006 -4.95266e-006 0.250501 -23.3373 73.3556 25.2817 8.12756 25.2332 -3.48393 -178.877 1.49617 3.62776 4.54188e-006 -4.6773e-006 -1.07602 -1.57215 -11.5397 0.350166 3.63445e-006 -4.01359e-006 -0.171355 20.2593 71.4246 -22.7567 -8.12472 25.2333 3.48272 
47.8546 99.7585 -0.20373 1.8942 -1.8996 3.42288 -0.119613 -1.7294 0.111227 -0.232555 0.543764 0.234698 -0.235751 2.18882 0.238609 -11.4927 20.9151 3.12554 5.07773 -3.80781 0.301158 57.3758 -2.68321 -1.5603 117.643 12.7395 15.2871 2.01821e-007 -4.92195e-007 -7.94283e-007 9.6309 3.27247 -0.694895 -6.79498e-006 8.86011e-007 -3.00783 8.02896 -4.95146 0.697663 -63.4617 -3.94247 2.81808 -109.729 13.8319 -4.04291 3.87447e-006 -1.35161e-006 1.86236e-006 -12.1406 7.89579 1.35181 7.24366e-006 -3.95987e-006 3.0075 -8.02888 -4.95141 -0.697687 175.18 3.12215 2.15659 180 7.01557e-015 178.967 176.982 15.5387 179.763 1.37498e-006 -4.95266e-006 0.250501 -23.326 73.3546 25.2786 8.12756 25.2332 -3.48393 -178.879 1.49869 3.62602 4.54188e-006 -4.6773e-006 -1.07586 -1.57578 -11.5411 0.349412 3.63445e-006 -4.01359e-006 -0.171365 20.2625 71.4235 -22.7548 -8.12472 25.2333 3.48272 
47.8461 99.7616 -0.195818 1.89718 -1.89964 3.4186 -0.119671 -1.72628 0.110666 -0.232687 0.550007 0.233745 -0.235843 2.19506 0.237665 -11.5076 20.9171 3.13246 5.08759 -3.80065 0.304342 57.3614 -2.6756 -1.55417 117.66 12.7696 15.2577 2.01821e-007 -4.92195e-007 -7.94283e-007 9.63679 3.28195 -0.696034 -6.79498e-006 8.86011e-007 -3.00783 8.02896 -4.95146 0.697663 -63.4702 -3.94544 2.82038 -109.723 13.8666 -4.04499 3.87447e-006 -1.35161e-006 1.86236e-006 -12.1354 7.84681 1.34567 7.24366e-006 -3.95987e-006 3.0075 -8.02888 -4.95141 -0.697687 175.177 3.1317 2.15271 180 7.01557e-015 178.967 176.99 15.5469 179.761 1.37498e-006 -4.95266e-006 0.250501 -23.3145 73.3536 25.2755 8.12756 25.2332 -3.48393 -178.881 1.50111 3.62436 4.54188e-006 -4.6773e-006 -1.07568 -1.57935 -11.5424 0.348659 3.63445e-006 -4.01359e-006 -0.17137 20.2656 71.4224 -22.7529 -8.12472 25.2333 3.48272 
47.8358 99.7589 -0.229741 1.90015 -1.8997 3.41433 -0.11973 -1.72316 0.110102 -0.232819 0.556246 0.232789 -0.235935 2.2013 0.236718 -11.5225 20.9192 3.13937 5.09746 -3.7935 0.307515 57.3471 -2.66799 -1.54803 117.677 12.7998 15.2283 2.01821e-007 -4.92195e-007 -7.94283e-007 9.64266 3.29142 -0.697171 -6.79498e-006 8.86011e-007 -3.00783 8.02896 -4.95146 0.697663 -63.4786 -3.94841 2.82267 -109.716 13.9012 -4.04708 3.87447e-006 -1.35161e-006 1.86236e-006 -12.1302 7.79777 1.33952 7.24366e-006 -3.95987e-006 3.0075 -8.02888 -4.95141 -0.697687 175.173 3.14122 2.1488 180 7.01557e-015 178.967 176.999 15.555 179.758 1.37498e-006 -4.95266e-006 0.250501 -23.3029 73.3526 25.2724 8.12756 25.2332 -3.48393 -178.883 1.50352 3.62272 4.54188e-006 -4.6773e-006 -1.07551 -1.5829 -11.5437 0.347905 3.63445e-006 -4.01359e-006 -0.171373 20.2687 71.4213 -22.751 -8.12472 25.2333 3.48272 
47.8357 99.7584 -0.221796 1.90313 -1.89974 3.41004 -0.119786 -1.72004 0.109544 -0.232949 0.562494 0.231839 -0.236026 2.20755 0.235776 -11.5373 20.9212 3.1463 5.10732 -3.78634 0.310709 57.3327 -2.66039 -1.5419 117.694 12.8299 15.1988 2.01821e-007 -4.92195e-007 -7.94283e-007 9.64857 3.30091 -0.698313 -6.79498e-006 8.86011e-007 -3.00783 8.02896 -4.95146 0.697663 -63.4871 -3.95138 2.82497 -109.71 13.9358 -4.04916 3.87447e-006 -1.35161e-006 1.86236e-006 -12.1251 7.74886 1.33339 7.24366e-006 -3.95987e-006 3.0075 -8.02888 -4.95141 -0.697687 175.17 3.1508 2.14495 180 7.01557e-015 178.967 177.008 15.5631 179.755 1.37498e-006 -4.95266e-006 0.250501 -23.2915 73.3516 25.2694 8.12756 25.2332 -3.48393 -178.886 1.50597 3.62104 4.54188e-006 -4.6773e-006 -1.07534 -1.58648 -11.5451 0.347152 3.63445e-006 -4.01359e-006 -0.171378 20.2718 71.4202 -22.7491 -8.12472 25.2333 3.48272 
47.8301 99.7592 -0.214374 1.90609 -1.89973 3.40568 -0.119834 -1.7169 0.109004 -0.233075 0.568764 0.230903 -0.236114 2.21382 0.23485 -11.5521 20.9231 3.15326 5.11715 -3.77917 0.313958 57.3183 -2.65282 -1.53579 117.712 12.86 15.1693 2.01821e-007 -4.92195e-007 -7.94283e-007 9.65457 3.31043 -0.699471 -6.79498e-006 8.86011e-007 -3.00783 8.02896 -4.95146 0.697663 -63.4954 -3.95438 2.82727 -109.703 13.9703 -4.05124 3.87447e-006 -1.35161e-006 1.86236e-006 -12.1199 7.70024 1.3273 7.24366e-006 -3.95987e-006 3.0075 -8.02888 -4.95141 -0.697687 175.167 3.16048 2.14123 180 7.01557e-015 178.967 177.017 15.5714 179.752 1.37498e-006 -4.95266e-006 0.250501 -23.2802 73.3507 25.2663 8.12756 25.2332 -3.48393 -178.888 1.50854 3.61927 4.54188e-006 -4.6773e-006 -1.07517 -1.59015 -11.5465 0.346397 3.63445e-006 -4.01359e-006 -0.171391 20.275 71.4191 -22.7472 -8.12472 25.2333 3.48272 
47.8389 99.7567 -0.218304 1.90904 -1.89966 3.40121 -0.119868 -1.71375 0.108492 -0.233194 0.575067 0.229992 -0.236195 2.22012 0.233947 -11.5669 20.9248 3.16027 5.12695 -3.77198 0.317294 57.3037 -2.64531 -1.52969 117.729 12.8902 15.1395 2.01821e-007 -4.92195e-007 -7.94283e-007 9.6607 3.32002 -0.700653 -6.79498e-006 8.86011e-007 -3.00783 8.02896 -4.95146 0.697663 -63.5036 -3.95741 2.82959 -109.697 14.0046 -4.05332 3.87447e-006 -1.35161e-006 1.86236e-006 -12.1146 7.6521 1.32128 7.24366e-006 -3.95987e-006 3.0075 -8.02888 -4.95141 -0.697687 175.164 3.17034 2.13774 180 7.01557e-015 178.967 177.025 15.5798 179.75 1.37498e-006 -4.95266e-006 0.250501 -23.2691 73.3497 25.2633 8.12756 25.2332 -3.48393 -178.89 1.51129 3.61735 4.54188e-006 -4.6773e-006 -1.07502 -1.59395 -11.5482 0.345641 3.63445e-006 -4.01359e-006 -0.171414 20.2784 71.4181 -22.7455 -8.12472 25.2333 3.48272 
47.8513 99.7732 -0.237582 1.91196 -1.89949 3.39659 -0.119885 -1.71058 0.108019 -0.233302 0.581419 0.229113 -0.236268 2.22647 0.233076 -11.5815 20.9263 3.16736 5.1367 -3.76478 0.320748 57.2889 -2.63788 -1.52363 117.747 12.9203 15.1093 2.01821e-007 -4.92195e-007 -7.94283e-007 9.66702 3.32969 -0.701868 -6.79498e-006 8.86011e-007 -3.00783 8.02896 -4.95146 0.697663 -63.5117 -3.96049 2.83191 -109.692 14.0387 -4.05539 3.87447e-006 -1.35161e-006 1.86236e-006 -12.1093 7.60463 1.31535 7.24366e-006 -3.95987e-006 3.0075 -8.02888 -4.95141 -0.697687 175.16 3.18044 2.13455 180 7.01557e-015 178.967 177.033 15.5883 179.747 1.37498e-006 -4.95266e-006 0.250501 -23.2583 73.3487 25.2604 8.12756 25.2332 -3.48393 -178.892 1.51431 3.61524 4.54188e-006 -4.6773e-006 -1.07488 -1.59795 -11.5501 0.344883 3.63445e-006 -4.01359e-006 -0.171452 20.282 71.4172 -22.7439 -8.12472 25.2333 3.48272 
47.8475 99.7691 -0.238513 1.91485 -1.8992 3.39178 -0.119879 -1.70738 0.107595 -0.233399 0.58783 0.228276 -0.236331 2.23288 0.232247 -11.5961 20.9273 3.17454 5.14639 -3.75754 0.324355 57.2739 -2.63055 -1.5176 117.765 12.9504 15.0788 2.01821e-007 -4.92195e-007 -7.94283e-007 9.67358 3.33947 -0.703126 -6.79498e-006 8.86011e-007 -3.00783 8.02896 -4.95146 0.697663 -63.5195 -3.96364 2.83426 -109.686 14.0724 -4.05745 3.87447e-006 -1.35161e-006 1.86236e-006 -12.1039 7.558 1.30953 7.24366e-006 -3.95987e-006 3.0075 -8.02888 -4.95141 -0.697687 175.156 3.19085 2.13176 180 7.01557e-015 178.967 177.04 15.5971 179.745 1.37498e-006 -4.95266e-006 0.250501 -23.2479 73.3478 25.2576 8.12756 25.2332 -3.48393 -178.894 1.51766 3.61286 4.54188e-006 -4.6773e-006 -1.07477 -1.60218 -11.5523 0.344121 3.63445e-006 -4.01359e-006 -0.171509 20.2859 71.4163 -22.7424 -8.12472 25.2333 3.48272 
